<mxfile host="app.diagrams.net" modified="2023-10-10T07:43:25.198Z" agent="Mozilla/5.0 (Windows NT 10.0; Win64; x64) AppleWebKit/537.36 (KHTML, like Gecko) Chrome/117.0.0.0 Safari/537.36" etag="p0MrtF9DRJiZ8Ejg659Z" version="22.0.4" type="github">
  <diagram id="C5RBs43oDa-KdzZeNtuy" name="Page-1">
    <mxGraphModel dx="836" dy="488" grid="1" gridSize="10" guides="1" tooltips="1" connect="1" arrows="1" fold="1" page="1" pageScale="1" pageWidth="827" pageHeight="1169" math="0" shadow="0">
      <root>
        <mxCell id="WIyWlLk6GJQsqaUBKTNV-0" />
        <mxCell id="WIyWlLk6GJQsqaUBKTNV-1" parent="WIyWlLk6GJQsqaUBKTNV-0" />
        <mxCell id="zkfFHV4jXpPFQw0GAbJ--16" value="" style="endArrow=block;endSize=10;endFill=0;shadow=0;strokeWidth=1;rounded=0;edgeStyle=elbowEdgeStyle;elbow=vertical;exitX=0.5;exitY=0;exitDx=0;exitDy=0;" parent="WIyWlLk6GJQsqaUBKTNV-1" source="ya-7JuQW1T51q11uYDyU-60" edge="1">
          <mxGeometry width="160" relative="1" as="geometry">
            <mxPoint x="360" y="290" as="sourcePoint" />
            <mxPoint x="360" y="240" as="targetPoint" />
          </mxGeometry>
        </mxCell>
        <mxCell id="ya-7JuQW1T51q11uYDyU-22" style="edgeStyle=orthogonalEdgeStyle;rounded=0;orthogonalLoop=1;jettySize=auto;html=1;exitX=0.5;exitY=0;exitDx=0;exitDy=0;entryX=0.5;entryY=1;entryDx=0;entryDy=0;" edge="1" parent="WIyWlLk6GJQsqaUBKTNV-1" target="ya-7JuQW1T51q11uYDyU-81">
          <mxGeometry relative="1" as="geometry">
            <mxPoint x="359.9999999999999" y="539.9999999999999" as="sourcePoint" />
            <mxPoint x="360" y="530" as="targetPoint" />
          </mxGeometry>
        </mxCell>
        <mxCell id="ya-7JuQW1T51q11uYDyU-33" value="&lt;b style=&quot;border-color: var(--border-color);&quot;&gt;&lt;u style=&quot;border-color: var(--border-color);&quot;&gt;Djur&lt;/u&gt;&lt;/b&gt;" style="swimlane;whiteSpace=wrap;html=1;" vertex="1" collapsed="1" parent="WIyWlLk6GJQsqaUBKTNV-1">
          <mxGeometry x="290" y="140" width="140" height="100" as="geometry">
            <mxRectangle x="70" y="120" width="200" height="200" as="alternateBounds" />
          </mxGeometry>
        </mxCell>
        <mxCell id="ya-7JuQW1T51q11uYDyU-35" value="" style="rounded=0;whiteSpace=wrap;html=1;" vertex="1" parent="ya-7JuQW1T51q11uYDyU-33">
          <mxGeometry y="20" width="200" height="70" as="geometry" />
        </mxCell>
        <mxCell id="ya-7JuQW1T51q11uYDyU-36" value="" style="rounded=0;whiteSpace=wrap;html=1;" vertex="1" parent="ya-7JuQW1T51q11uYDyU-33">
          <mxGeometry y="30" width="120" height="60" as="geometry" />
        </mxCell>
        <mxCell id="ya-7JuQW1T51q11uYDyU-37" value="" style="rounded=0;whiteSpace=wrap;html=1;" vertex="1" parent="ya-7JuQW1T51q11uYDyU-33">
          <mxGeometry y="30" width="120" height="60" as="geometry" />
        </mxCell>
        <mxCell id="ya-7JuQW1T51q11uYDyU-38" value="" style="rounded=0;whiteSpace=wrap;html=1;" vertex="1" parent="ya-7JuQW1T51q11uYDyU-33">
          <mxGeometry x="20" y="50" width="120" height="60" as="geometry" />
        </mxCell>
        <mxCell id="ya-7JuQW1T51q11uYDyU-39" value="" style="rounded=0;whiteSpace=wrap;html=1;" vertex="1" parent="ya-7JuQW1T51q11uYDyU-33">
          <mxGeometry y="30" width="120" height="60" as="geometry" />
        </mxCell>
        <mxCell id="ya-7JuQW1T51q11uYDyU-40" value="" style="rounded=0;whiteSpace=wrap;html=1;" vertex="1" parent="ya-7JuQW1T51q11uYDyU-33">
          <mxGeometry x="20" y="45" width="120" height="60" as="geometry" />
        </mxCell>
        <mxCell id="ya-7JuQW1T51q11uYDyU-42" value="" style="rounded=0;whiteSpace=wrap;html=1;" vertex="1" parent="ya-7JuQW1T51q11uYDyU-33">
          <mxGeometry x="10" y="60" width="120" height="60" as="geometry" />
        </mxCell>
        <mxCell id="ya-7JuQW1T51q11uYDyU-43" value="" style="rounded=1;whiteSpace=wrap;html=1;" vertex="1" parent="ya-7JuQW1T51q11uYDyU-33">
          <mxGeometry y="60" width="120" height="60" as="geometry" />
        </mxCell>
        <mxCell id="ya-7JuQW1T51q11uYDyU-44" value="" style="whiteSpace=wrap;html=1;aspect=fixed;" vertex="1" parent="ya-7JuQW1T51q11uYDyU-33">
          <mxGeometry y="20" width="120" height="120" as="geometry" />
        </mxCell>
        <mxCell id="ya-7JuQW1T51q11uYDyU-45" value="" style="rounded=0;whiteSpace=wrap;html=1;" vertex="1" parent="ya-7JuQW1T51q11uYDyU-33">
          <mxGeometry x="20" y="40" width="120" height="60" as="geometry" />
        </mxCell>
        <mxCell id="ya-7JuQW1T51q11uYDyU-46" value="" style="rounded=0;whiteSpace=wrap;html=1;" vertex="1" parent="ya-7JuQW1T51q11uYDyU-33">
          <mxGeometry x="10" y="45" width="120" height="60" as="geometry" />
        </mxCell>
        <mxCell id="ya-7JuQW1T51q11uYDyU-47" value="" style="rounded=0;whiteSpace=wrap;html=1;" vertex="1" parent="ya-7JuQW1T51q11uYDyU-33">
          <mxGeometry x="70" y="70" width="120" height="60" as="geometry" />
        </mxCell>
        <mxCell id="ya-7JuQW1T51q11uYDyU-48" value="" style="whiteSpace=wrap;html=1;" vertex="1" parent="ya-7JuQW1T51q11uYDyU-33">
          <mxGeometry y="20" width="120" height="60" as="geometry" />
        </mxCell>
        <mxCell id="ya-7JuQW1T51q11uYDyU-54" value="" style="whiteSpace=wrap;html=1;labelPosition=center;verticalLabelPosition=middle;align=center;verticalAlign=middle;" vertex="1" parent="WIyWlLk6GJQsqaUBKTNV-1">
          <mxGeometry x="290" y="163" width="140" height="77" as="geometry" />
        </mxCell>
        <mxCell id="ya-7JuQW1T51q11uYDyU-55" value="&lt;u&gt;Methods&lt;/u&gt;" style="text;html=1;strokeColor=none;fillColor=none;align=center;verticalAlign=middle;whiteSpace=wrap;rounded=0;" vertex="1" parent="WIyWlLk6GJQsqaUBKTNV-1">
          <mxGeometry x="330" y="155" width="60" height="30" as="geometry" />
        </mxCell>
        <mxCell id="ya-7JuQW1T51q11uYDyU-56" value="&lt;font style=&quot;font-size: 11px;&quot;&gt;+abstract void SetHealth()&lt;/font&gt;" style="text;html=1;strokeColor=none;fillColor=none;align=center;verticalAlign=middle;whiteSpace=wrap;rounded=0;" vertex="1" parent="WIyWlLk6GJQsqaUBKTNV-1">
          <mxGeometry x="290" y="168" width="140" height="30" as="geometry" />
        </mxCell>
        <mxCell id="ya-7JuQW1T51q11uYDyU-57" value="&lt;font style=&quot;font-size: 11px;&quot;&gt;+abstract void SetSpeed()&lt;/font&gt;" style="text;html=1;strokeColor=none;fillColor=none;align=center;verticalAlign=middle;whiteSpace=wrap;rounded=0;" vertex="1" parent="WIyWlLk6GJQsqaUBKTNV-1">
          <mxGeometry x="290" y="181" width="140" height="30" as="geometry" />
        </mxCell>
        <mxCell id="ya-7JuQW1T51q11uYDyU-58" value="&lt;font style=&quot;font-size: 11px;&quot;&gt;+abstract void SetLeg()&lt;/font&gt;" style="text;html=1;strokeColor=none;fillColor=none;align=center;verticalAlign=middle;whiteSpace=wrap;rounded=0;" vertex="1" parent="WIyWlLk6GJQsqaUBKTNV-1">
          <mxGeometry x="290" y="195" width="140" height="30" as="geometry" />
        </mxCell>
        <mxCell id="ya-7JuQW1T51q11uYDyU-60" value="Luft" style="swimlane;whiteSpace=wrap;html=1;" vertex="1" collapsed="1" parent="WIyWlLk6GJQsqaUBKTNV-1">
          <mxGeometry x="290" y="290" width="140" height="100" as="geometry">
            <mxRectangle x="70" y="120" width="200" height="200" as="alternateBounds" />
          </mxGeometry>
        </mxCell>
        <mxCell id="ya-7JuQW1T51q11uYDyU-61" value="" style="rounded=0;whiteSpace=wrap;html=1;" vertex="1" parent="ya-7JuQW1T51q11uYDyU-60">
          <mxGeometry y="20" width="200" height="70" as="geometry" />
        </mxCell>
        <mxCell id="ya-7JuQW1T51q11uYDyU-62" value="" style="rounded=0;whiteSpace=wrap;html=1;" vertex="1" parent="ya-7JuQW1T51q11uYDyU-60">
          <mxGeometry y="30" width="120" height="60" as="geometry" />
        </mxCell>
        <mxCell id="ya-7JuQW1T51q11uYDyU-63" value="" style="rounded=0;whiteSpace=wrap;html=1;" vertex="1" parent="ya-7JuQW1T51q11uYDyU-60">
          <mxGeometry y="30" width="120" height="60" as="geometry" />
        </mxCell>
        <mxCell id="ya-7JuQW1T51q11uYDyU-64" value="" style="rounded=0;whiteSpace=wrap;html=1;" vertex="1" parent="ya-7JuQW1T51q11uYDyU-60">
          <mxGeometry x="20" y="50" width="120" height="60" as="geometry" />
        </mxCell>
        <mxCell id="ya-7JuQW1T51q11uYDyU-65" value="" style="rounded=0;whiteSpace=wrap;html=1;" vertex="1" parent="ya-7JuQW1T51q11uYDyU-60">
          <mxGeometry y="30" width="120" height="60" as="geometry" />
        </mxCell>
        <mxCell id="ya-7JuQW1T51q11uYDyU-66" value="" style="rounded=0;whiteSpace=wrap;html=1;" vertex="1" parent="ya-7JuQW1T51q11uYDyU-60">
          <mxGeometry x="20" y="45" width="120" height="60" as="geometry" />
        </mxCell>
        <mxCell id="ya-7JuQW1T51q11uYDyU-67" value="" style="rounded=0;whiteSpace=wrap;html=1;" vertex="1" parent="ya-7JuQW1T51q11uYDyU-60">
          <mxGeometry x="10" y="60" width="120" height="60" as="geometry" />
        </mxCell>
        <mxCell id="ya-7JuQW1T51q11uYDyU-68" value="" style="rounded=1;whiteSpace=wrap;html=1;" vertex="1" parent="ya-7JuQW1T51q11uYDyU-60">
          <mxGeometry y="60" width="120" height="60" as="geometry" />
        </mxCell>
        <mxCell id="ya-7JuQW1T51q11uYDyU-69" value="" style="whiteSpace=wrap;html=1;aspect=fixed;" vertex="1" parent="ya-7JuQW1T51q11uYDyU-60">
          <mxGeometry y="20" width="120" height="120" as="geometry" />
        </mxCell>
        <mxCell id="ya-7JuQW1T51q11uYDyU-70" value="" style="rounded=0;whiteSpace=wrap;html=1;" vertex="1" parent="ya-7JuQW1T51q11uYDyU-60">
          <mxGeometry x="20" y="40" width="120" height="60" as="geometry" />
        </mxCell>
        <mxCell id="ya-7JuQW1T51q11uYDyU-71" value="" style="rounded=0;whiteSpace=wrap;html=1;" vertex="1" parent="ya-7JuQW1T51q11uYDyU-60">
          <mxGeometry x="10" y="45" width="120" height="60" as="geometry" />
        </mxCell>
        <mxCell id="ya-7JuQW1T51q11uYDyU-72" value="" style="rounded=0;whiteSpace=wrap;html=1;" vertex="1" parent="ya-7JuQW1T51q11uYDyU-60">
          <mxGeometry x="70" y="70" width="120" height="60" as="geometry" />
        </mxCell>
        <mxCell id="ya-7JuQW1T51q11uYDyU-73" value="" style="whiteSpace=wrap;html=1;" vertex="1" parent="ya-7JuQW1T51q11uYDyU-60">
          <mxGeometry y="20" width="120" height="60" as="geometry" />
        </mxCell>
        <mxCell id="ya-7JuQW1T51q11uYDyU-74" value="" style="whiteSpace=wrap;html=1;labelPosition=center;verticalLabelPosition=middle;align=center;verticalAlign=middle;" vertex="1" parent="WIyWlLk6GJQsqaUBKTNV-1">
          <mxGeometry x="290" y="313" width="140" height="77" as="geometry" />
        </mxCell>
        <mxCell id="ya-7JuQW1T51q11uYDyU-81" value="" style="whiteSpace=wrap;html=1;labelPosition=center;verticalLabelPosition=middle;align=center;verticalAlign=middle;" vertex="1" parent="WIyWlLk6GJQsqaUBKTNV-1">
          <mxGeometry x="290" y="390" width="140" height="100" as="geometry" />
        </mxCell>
        <mxCell id="ya-7JuQW1T51q11uYDyU-76" value="&lt;font style=&quot;&quot;&gt;&lt;span style=&quot;font-size: 11px;&quot;&gt;+void SetHealth(int health)&lt;/span&gt;&lt;br&gt;&lt;span style=&quot;font-size: 11px;&quot;&gt;+void SetSpeed(int speed)&lt;/span&gt;&lt;br&gt;&lt;font style=&quot;font-size: 9px;&quot;&gt;+void SetLegAmount(int amount)&lt;br&gt;&lt;/font&gt;&lt;font style=&quot;font-size: 10px;&quot;&gt;+int GetHealth()&lt;br&gt;&lt;/font&gt;&lt;font style=&quot;font-size: 10px;&quot;&gt;+int GetSpeed()&lt;/font&gt;&lt;br&gt;&lt;/font&gt;" style="text;html=1;strokeColor=none;fillColor=none;align=center;verticalAlign=middle;whiteSpace=wrap;rounded=0;" vertex="1" parent="WIyWlLk6GJQsqaUBKTNV-1">
          <mxGeometry x="275" y="413" width="170" height="60" as="geometry" />
        </mxCell>
        <mxCell id="ya-7JuQW1T51q11uYDyU-75" value="&lt;u&gt;Methods&lt;/u&gt;" style="text;html=1;strokeColor=none;fillColor=none;align=center;verticalAlign=middle;whiteSpace=wrap;rounded=0;" vertex="1" parent="WIyWlLk6GJQsqaUBKTNV-1">
          <mxGeometry x="330" y="383" width="60" height="30" as="geometry" />
        </mxCell>
        <mxCell id="ya-7JuQW1T51q11uYDyU-83" value="&lt;u&gt;Properties&lt;/u&gt;" style="text;html=1;strokeColor=none;fillColor=none;align=center;verticalAlign=middle;whiteSpace=wrap;rounded=0;" vertex="1" parent="WIyWlLk6GJQsqaUBKTNV-1">
          <mxGeometry x="330" y="306" width="60" height="30" as="geometry" />
        </mxCell>
        <mxCell id="ya-7JuQW1T51q11uYDyU-84" value="&lt;font style=&quot;font-size: 11px;&quot;&gt;-int Speed&lt;br&gt;-int Health&lt;br&gt;-int AmountOfLegs&lt;br&gt;&lt;/font&gt;" style="text;html=1;strokeColor=none;fillColor=none;align=center;verticalAlign=middle;whiteSpace=wrap;rounded=0;" vertex="1" parent="WIyWlLk6GJQsqaUBKTNV-1">
          <mxGeometry x="290" y="336" width="140" height="30" as="geometry" />
        </mxCell>
        <mxCell id="ya-7JuQW1T51q11uYDyU-91" value="&lt;span style=&quot;font-weight: normal;&quot;&gt;Albatros&lt;/span&gt;" style="swimlane;whiteSpace=wrap;html=1;" vertex="1" collapsed="1" parent="WIyWlLk6GJQsqaUBKTNV-1">
          <mxGeometry x="290" y="540" width="140" height="100" as="geometry">
            <mxRectangle x="70" y="120" width="200" height="200" as="alternateBounds" />
          </mxGeometry>
        </mxCell>
        <mxCell id="ya-7JuQW1T51q11uYDyU-92" value="" style="rounded=0;whiteSpace=wrap;html=1;" vertex="1" parent="ya-7JuQW1T51q11uYDyU-91">
          <mxGeometry y="20" width="200" height="70" as="geometry" />
        </mxCell>
        <mxCell id="ya-7JuQW1T51q11uYDyU-93" value="" style="rounded=0;whiteSpace=wrap;html=1;" vertex="1" parent="ya-7JuQW1T51q11uYDyU-91">
          <mxGeometry y="30" width="120" height="60" as="geometry" />
        </mxCell>
        <mxCell id="ya-7JuQW1T51q11uYDyU-94" value="" style="rounded=0;whiteSpace=wrap;html=1;" vertex="1" parent="ya-7JuQW1T51q11uYDyU-91">
          <mxGeometry y="30" width="120" height="60" as="geometry" />
        </mxCell>
        <mxCell id="ya-7JuQW1T51q11uYDyU-95" value="" style="rounded=0;whiteSpace=wrap;html=1;" vertex="1" parent="ya-7JuQW1T51q11uYDyU-91">
          <mxGeometry x="20" y="50" width="120" height="60" as="geometry" />
        </mxCell>
        <mxCell id="ya-7JuQW1T51q11uYDyU-96" value="" style="rounded=0;whiteSpace=wrap;html=1;" vertex="1" parent="ya-7JuQW1T51q11uYDyU-91">
          <mxGeometry y="30" width="120" height="60" as="geometry" />
        </mxCell>
        <mxCell id="ya-7JuQW1T51q11uYDyU-97" value="" style="rounded=0;whiteSpace=wrap;html=1;" vertex="1" parent="ya-7JuQW1T51q11uYDyU-91">
          <mxGeometry x="20" y="45" width="120" height="60" as="geometry" />
        </mxCell>
        <mxCell id="ya-7JuQW1T51q11uYDyU-98" value="" style="rounded=0;whiteSpace=wrap;html=1;" vertex="1" parent="ya-7JuQW1T51q11uYDyU-91">
          <mxGeometry x="10" y="60" width="120" height="60" as="geometry" />
        </mxCell>
        <mxCell id="ya-7JuQW1T51q11uYDyU-99" value="" style="rounded=1;whiteSpace=wrap;html=1;" vertex="1" parent="ya-7JuQW1T51q11uYDyU-91">
          <mxGeometry y="60" width="120" height="60" as="geometry" />
        </mxCell>
        <mxCell id="ya-7JuQW1T51q11uYDyU-100" value="" style="whiteSpace=wrap;html=1;aspect=fixed;" vertex="1" parent="ya-7JuQW1T51q11uYDyU-91">
          <mxGeometry y="20" width="120" height="120" as="geometry" />
        </mxCell>
        <mxCell id="ya-7JuQW1T51q11uYDyU-101" value="" style="rounded=0;whiteSpace=wrap;html=1;" vertex="1" parent="ya-7JuQW1T51q11uYDyU-91">
          <mxGeometry x="20" y="40" width="120" height="60" as="geometry" />
        </mxCell>
        <mxCell id="ya-7JuQW1T51q11uYDyU-102" value="" style="rounded=0;whiteSpace=wrap;html=1;" vertex="1" parent="ya-7JuQW1T51q11uYDyU-91">
          <mxGeometry x="10" y="45" width="120" height="60" as="geometry" />
        </mxCell>
        <mxCell id="ya-7JuQW1T51q11uYDyU-103" value="" style="rounded=0;whiteSpace=wrap;html=1;" vertex="1" parent="ya-7JuQW1T51q11uYDyU-91">
          <mxGeometry x="70" y="70" width="120" height="60" as="geometry" />
        </mxCell>
        <mxCell id="ya-7JuQW1T51q11uYDyU-104" value="" style="whiteSpace=wrap;html=1;" vertex="1" parent="ya-7JuQW1T51q11uYDyU-91">
          <mxGeometry y="20" width="120" height="60" as="geometry" />
        </mxCell>
        <mxCell id="ya-7JuQW1T51q11uYDyU-105" value="" style="whiteSpace=wrap;html=1;labelPosition=center;verticalLabelPosition=middle;align=center;verticalAlign=middle;" vertex="1" parent="WIyWlLk6GJQsqaUBKTNV-1">
          <mxGeometry x="290" y="563" width="140" height="77" as="geometry" />
        </mxCell>
        <mxCell id="ya-7JuQW1T51q11uYDyU-106" value="" style="whiteSpace=wrap;html=1;labelPosition=center;verticalLabelPosition=middle;align=center;verticalAlign=middle;" vertex="1" parent="WIyWlLk6GJQsqaUBKTNV-1">
          <mxGeometry x="290" y="640" width="140" height="100" as="geometry" />
        </mxCell>
        <mxCell id="ya-7JuQW1T51q11uYDyU-107" value="&lt;font style=&quot;font-size: 9px;&quot;&gt;+Albatros(int AnimalHealth, int AnimalSpeed, int LegAmount)&lt;br&gt;&lt;br&gt;+override void SetHealth()&lt;br&gt;&lt;br&gt;+override void SetSpeed()&lt;br&gt;&lt;br&gt;+override void SetLegAmount()&lt;br style=&quot;font-size: 9px;&quot;&gt;&lt;/font&gt;" style="text;html=1;strokeColor=none;fillColor=none;align=center;verticalAlign=middle;whiteSpace=wrap;rounded=0;fontSize=9;" vertex="1" parent="WIyWlLk6GJQsqaUBKTNV-1">
          <mxGeometry x="275" y="653" width="165" height="87" as="geometry" />
        </mxCell>
        <mxCell id="ya-7JuQW1T51q11uYDyU-108" value="&lt;u&gt;Methods&lt;/u&gt;" style="text;html=1;strokeColor=none;fillColor=none;align=center;verticalAlign=middle;whiteSpace=wrap;rounded=0;" vertex="1" parent="WIyWlLk6GJQsqaUBKTNV-1">
          <mxGeometry x="330" y="633" width="60" height="30" as="geometry" />
        </mxCell>
        <mxCell id="ya-7JuQW1T51q11uYDyU-109" value="&lt;u&gt;Properties&lt;/u&gt;" style="text;html=1;strokeColor=none;fillColor=none;align=center;verticalAlign=middle;whiteSpace=wrap;rounded=0;" vertex="1" parent="WIyWlLk6GJQsqaUBKTNV-1">
          <mxGeometry x="330" y="556" width="60" height="30" as="geometry" />
        </mxCell>
        <mxCell id="ya-7JuQW1T51q11uYDyU-110" value="&lt;font style=&quot;font-size: 11px;&quot;&gt;-int Speed&lt;br&gt;-int Health&lt;br&gt;-int Legs&lt;br&gt;&lt;/font&gt;" style="text;html=1;strokeColor=none;fillColor=none;align=center;verticalAlign=middle;whiteSpace=wrap;rounded=0;" vertex="1" parent="WIyWlLk6GJQsqaUBKTNV-1">
          <mxGeometry x="290" y="586" width="140" height="30" as="geometry" />
        </mxCell>
      </root>
    </mxGraphModel>
  </diagram>
</mxfile>
